<svg width="135" height="35" viewBox="0 0 135 35" fill="none" xmlns="http://www.w3.org/2000/svg">
<g clip-path="url(#clip0_2_734)">
<path d="M70.6059 22.4935C72.1705 21.5177 73.1983 19.8797 73.3755 18.0725H85.1929V19.5113H74.216L74.1856 19.6109C73.6084 21.4032 72.3122 22.9017 70.6059 23.7531V22.4935Z" fill="#EBEBEB"/>
<path d="M49.5989 16.9274V15.4886H60.5758L60.6062 15.389C61.1834 13.5967 62.4796 12.0981 64.1858 11.2468V12.5064C62.6213 13.4822 61.5935 15.1201 61.4163 16.9274H49.5989Z" fill="#EBEBEB"/>
<path d="M72.4692 14.3484C71.4768 12.81 69.811 11.7994 67.9781 11.6251V0H69.4414V10.7937L69.5427 10.8236C71.3654 11.3911 72.8894 12.6706 73.7552 14.3484H72.4742H72.4692Z" fill="#EBEBEB"/>
<path d="M68.7124 16.9274C66.8592 16.9274 65.3555 15.4487 65.3555 13.6265V0H66.8187V13.6265C66.8187 14.6521 67.6694 15.4885 68.7124 15.4885H85.198V16.9274H68.7124Z" fill="#EBEBEB"/>
<path d="M65.3555 34.9998V24.2061L65.2542 24.1763C63.4315 23.6087 61.9075 22.3292 61.0417 20.6514H62.3226C63.315 22.1898 64.9808 23.2004 66.8137 23.3747V34.9998H65.3504H65.3555Z" fill="#EBEBEB"/>
<path d="M67.9782 34.9998V21.3733C67.9782 20.3477 67.1275 19.5113 66.0845 19.5113H49.5989V18.0725H66.0845C67.9377 18.0725 69.4414 19.5511 69.4414 21.3733V34.9998H67.9782Z" fill="#EBEBEB"/>
<path d="M123.718 17.8385C123.678 17.8335 123.653 17.7986 123.653 17.7588V17.236C123.653 17.1962 123.683 17.1663 123.718 17.1564L127.966 16.32L128.772 17.1116V17.8833L127.966 18.6749L123.718 17.8385Z" fill="#EBEBEB"/>
<path d="M105.628 17.8833V17.1116L106.433 16.32L110.681 17.1564C110.721 17.1614 110.747 17.1962 110.747 17.236V17.7588C110.747 17.7986 110.716 17.8285 110.681 17.8385L106.433 18.6749L105.628 17.8833Z" fill="#EBEBEB"/>
<path d="M130.782 28.8811L121.172 19.4316C120.979 19.2424 120.706 19.1329 120.433 19.1329H119.562C118.949 19.1329 118.372 18.8989 117.936 18.4707C117.739 18.2766 117.476 18.172 117.197 18.172C116.919 18.172 116.655 18.2766 116.458 18.4707C116.022 18.8989 115.445 19.1329 114.833 19.1329H113.962C113.683 19.1329 113.42 19.2374 113.223 19.4316L103.613 28.8811H100.17L99.4102 26.6456C99.3647 26.5162 99.4204 26.3718 99.5368 26.2971L110.524 19.3519C111.374 18.8143 112.362 18.5305 113.369 18.5305H114.924C115.106 18.5305 115.283 18.4857 115.44 18.396C115.769 18.2118 115.967 17.8783 115.967 17.5049C115.967 17.1315 115.769 16.7979 115.44 16.6137C115.283 16.5241 115.101 16.4793 114.924 16.4793H113.369C112.357 16.4793 111.374 16.1955 110.524 15.6578L99.5368 8.7126C99.4204 8.63792 99.3697 8.49354 99.4102 8.3641L100.17 6.12869H103.613L113.223 15.5781C113.42 15.7723 113.683 15.8769 113.962 15.8769H114.833C115.445 15.8769 116.022 16.1109 116.458 16.539C116.655 16.7332 116.919 16.8377 117.197 16.8377C117.476 16.8377 117.739 16.7332 117.936 16.539C118.372 16.1109 118.949 15.8769 119.562 15.8769H120.433C120.706 15.8769 120.979 15.7673 121.172 15.5781L130.782 6.12869H134.225L134.984 8.3641C135.03 8.49354 134.974 8.63792 134.857 8.7126L123.87 15.6578C123.02 16.1955 122.038 16.4793 121.025 16.4793H119.471C119.288 16.4793 119.111 16.5241 118.954 16.6137C118.625 16.7979 118.427 17.1315 118.427 17.5049C118.427 17.8783 118.625 18.2118 118.954 18.396C119.111 18.4857 119.293 18.5305 119.471 18.5305H121.025C122.038 18.5305 123.02 18.8143 123.87 19.3519L134.857 26.2971C134.974 26.3718 135.025 26.5162 134.984 26.6456L134.225 28.8811H130.782Z" fill="#EBEBEB"/>
<path d="M109.947 31.8035C109.82 31.709 109.785 31.5397 109.866 31.4102L115.972 21.1144L116.549 20.5518L114.812 33.3619L113.157 34.1734L109.942 31.8035H109.947Z" fill="#EBEBEB"/>
<path d="M119.587 33.3618L117.85 20.5369L118.453 21.1443L124.539 31.4102C124.62 31.5446 124.584 31.7139 124.458 31.8035L121.243 34.1734L119.587 33.3618Z" fill="#EBEBEB"/>
<path d="M115.952 13.8556L109.866 3.58962C109.785 3.45519 109.82 3.28592 109.947 3.1963L113.162 0.826473L114.817 1.63799L116.554 14.448L115.952 13.8556Z" fill="#EBEBEB"/>
<path d="M119.587 1.63799L121.243 0.826473L124.458 3.1963C124.584 3.2909 124.62 3.46017 124.539 3.58962L118.433 13.8854L117.84 14.463L119.592 1.63799H119.587Z" fill="#EBEBEB"/>
<path d="M24.926 16.4046L18.2223 9.81288V4.54548C18.2223 3.72401 17.5439 3.05687 16.7085 3.05687H13.1693L2.86069 13.1934C2.63285 13.4174 2.31387 13.5469 1.99489 13.5469H0L11.3516 2.38475H17.9135C18.6071 2.38475 19.2603 2.64862 19.7514 3.13155L30.541 13.741V15.8669C30.541 16.1606 30.298 16.3996 29.9993 16.3996H24.926V16.4046Z" fill="#EBEBEB"/>
<path d="M2.22277 23.6386V17.1863C2.22277 16.5042 2.49111 15.862 2.98224 15.379L13.7719 4.76957H15.9338C16.2326 4.76957 16.4807 5.00854 16.4807 5.30726V10.2909L9.77701 16.8826H4.42018C3.58476 16.8826 2.90629 17.5497 2.90629 18.3712V21.8513L13.2149 31.9878C13.4478 32.2168 13.5744 32.5205 13.5744 32.8441V34.8057L2.22277 23.6386Z" fill="#EBEBEB"/>
<path d="M17.2756 32.615C16.5819 32.615 15.9288 32.3512 15.4377 31.8682L4.64805 21.2588V19.1329C4.64805 18.8392 4.89108 18.6002 5.1898 18.6002H10.2631L16.9667 25.1919V30.4593C16.9667 31.2808 17.6452 31.9479 18.4806 31.9479H22.0198L32.3284 21.8114C32.5613 21.5824 32.8701 21.4579 33.1993 21.4579H35.1941L23.8425 32.62H17.2807L17.2756 32.615Z" fill="#EBEBEB"/>
<path d="M19.2502 30.2303C18.9514 30.2303 18.7084 29.9913 18.7084 29.6976V24.709L25.412 18.1173H30.7689C31.6043 18.1173 32.2827 17.4501 32.2827 16.6287V13.1486L21.9741 3.01706C21.7463 2.79303 21.6147 2.47937 21.6147 2.16572V0.199157L32.9663 11.3613V17.8136C32.9663 18.4956 32.6979 19.1379 32.2068 19.6208L21.4172 30.2303H19.2552H19.2502Z" fill="#EBEBEB"/>
</g>
<defs>
<clipPath id="clip0_2_734">
<rect width="135.001" height="35" fill="white"/>
</clipPath>
</defs>
</svg>
