<svg width="351" height="82" viewBox="0 0 351 82" fill="none" xmlns="http://www.w3.org/2000/svg">
<g clip-path="url(#clip0_2_502)">
<path d="M33.7502 75.6217C33.7502 75.6217 33.7748 75.5115 33.8117 75.4625L42.0527 67.2478C42.0527 67.2478 42.151 67.1866 42.2124 67.1866H83.3316C83.5527 67.1866 83.7615 67.1009 83.9089 66.9418L84.6826 66.1705C84.8423 66.0113 84.9283 65.8155 84.9283 65.5951V60.4043C84.9283 60.1839 84.8423 59.9758 84.6826 59.8289L83.9089 59.0576C83.7492 58.8985 83.5527 58.8128 83.3316 58.8128H49.52C49.3849 58.8128 49.3358 58.7148 49.3235 58.6781C49.3112 58.6414 49.2744 58.5312 49.3726 58.4455L53.5239 54.3075C53.5239 54.3075 53.6221 54.2463 53.6835 54.2463H85.481C85.481 54.2463 85.5915 54.2708 85.6406 54.3075L89.448 58.1027C89.448 58.1027 89.5094 58.2007 89.5094 58.2619V67.7375C89.5094 67.7375 89.4848 67.8477 89.448 67.8967L85.6406 71.6918C85.6406 71.6918 85.5424 71.7531 85.481 71.7531H44.3617C44.1406 71.7531 43.9318 71.8388 43.7844 71.9979L33.7502 82V75.6217Z" fill="#EBEBEB"/>
<path d="M114.245 75.6217C114.245 75.6217 114.269 75.5115 114.306 75.4625L122.547 67.2478C122.547 67.2478 122.646 67.1866 122.707 67.1866H132.667C132.888 67.1866 133.097 67.1009 133.245 66.9418L144.396 55.8256C144.556 55.6665 144.642 55.4706 144.642 55.2502V36.3479C144.642 35.8949 144.274 35.5276 143.819 35.5276H124.082C123.628 35.5276 123.26 35.8949 123.26 36.3479V46.4479C123.26 46.6805 123.346 46.8886 123.518 47.0478C123.665 47.1947 123.874 47.2681 124.082 47.2681C124.291 47.2681 124.5 47.1824 124.66 47.0233L130.334 41.3673C130.334 41.3673 130.432 41.3061 130.494 41.3061H136.033C136.155 41.3061 136.254 41.404 136.254 41.5264V45.6644C136.254 45.7868 136.155 45.8847 136.033 45.8847H132.655C132.434 45.8847 132.225 45.9704 132.078 46.1296L123.518 54.6626C123.358 54.8217 123.272 55.0176 123.272 55.238V59.9881C123.272 59.9881 123.247 60.0982 123.21 60.1472L111.604 71.7163C111.604 71.7163 111.506 71.7775 111.445 71.7775H95.5274C95.4046 71.7775 95.3063 71.6796 95.3063 71.5572V67.4192C95.3063 67.2968 95.4046 67.1989 95.5274 67.1989H109.295C109.516 67.1989 109.725 67.1132 109.872 66.954L118.433 58.421C118.593 58.2619 118.679 58.066 118.679 57.8456V36.3601C118.679 35.9071 118.31 35.5399 117.856 35.5399H96.6942C96.6942 35.5399 96.5836 35.5154 96.5345 35.4786L86.5003 25.4276C86.353 25.2684 86.1319 25.1827 85.9231 25.1827H59.9472C59.7261 25.1827 59.5173 25.2684 59.37 25.4276L55.2187 29.5655C54.9854 29.7981 54.9117 30.1409 55.0468 30.4592C55.1819 30.7653 55.4644 30.9612 55.8083 30.9612H72.5114C72.5114 30.9612 72.622 30.9857 72.6711 31.0224L74.9678 33.3117C75.1274 33.4709 75.3239 33.5566 75.545 33.5566H85.5055C85.5055 33.5566 85.6161 33.5811 85.6652 33.6178L89.4725 37.413C89.4725 37.413 89.5339 37.5109 89.5339 37.5721V44.4646C89.5339 44.4646 89.5094 44.5748 89.4725 44.6238L85.6652 48.4189C85.6652 48.4189 85.5669 48.4801 85.5055 48.4801H54.7766C54.5555 48.4801 54.3467 48.5658 54.1993 48.725L31.1342 71.7163C31.1342 71.7163 31.036 71.7775 30.9746 71.7775H8.46212C8.46212 71.7775 8.35159 71.7531 8.30246 71.7163L4.49512 67.9212C4.49512 67.9212 4.43371 67.8232 4.43371 67.762V60.8695C4.43371 60.8695 4.45827 60.7593 4.49512 60.7104L8.31474 56.9152C8.31474 56.9152 8.413 56.854 8.4744 56.854H19.1964C19.3192 56.854 19.4174 56.9519 19.4174 57.0743V61.2123C19.4174 61.3347 19.3192 61.4327 19.1964 61.4327H10.6237C10.4026 61.4327 10.1938 61.5184 10.0465 61.6775L9.27272 62.4488C9.11306 62.6079 9.02708 62.8038 9.02708 63.0242V65.6318C9.02708 65.8522 9.11306 66.0603 9.27272 66.2072L10.0465 66.9785C10.2061 67.1376 10.4026 67.2234 10.6237 67.2234H15.8312C16.0522 67.2234 16.261 67.1376 16.4084 66.9785L24.9688 58.4455C25.1285 58.2864 25.2144 58.0905 25.2144 57.8701V43.3628C25.2144 42.9098 24.846 42.5425 24.3915 42.5425C24.1705 42.5425 23.974 42.6282 23.8143 42.7874L12.945 53.622C12.945 53.622 12.8467 53.6832 12.7853 53.6832H4.65478C4.53196 53.6832 4.43371 53.5852 4.43371 53.4628V49.3249C4.43371 49.2024 4.53196 49.1045 4.65478 49.1045H10.636C10.8571 49.1045 11.0659 49.0188 11.2132 48.8597L32.7554 27.3864C32.9151 27.2272 33.0011 27.0314 33.0011 26.811V21.6202C33.0011 21.3998 32.9151 21.1917 32.7554 21.0448L26.7865 15.095C26.6268 14.9358 26.4303 14.8501 26.2092 14.8501H15.0329C14.5784 14.8501 14.21 15.2174 14.21 15.6703V37.1559C14.21 37.3762 14.296 37.5844 14.4556 37.7313L15.7698 39.0412C15.8557 39.1269 15.8557 39.2616 15.7698 39.3473L12.8344 42.2732C12.8344 42.2732 12.7362 42.3344 12.6748 42.3344C12.6134 42.3344 12.5642 42.3099 12.5151 42.2732L9.67802 39.4452C9.67802 39.4452 9.61661 39.3473 9.61661 39.2861V15.6336C9.61661 15.1807 9.24815 14.8134 8.79373 14.8134H5.85839C5.85839 14.8134 5.74786 14.7889 5.69873 14.7522L0.0614087 9.12063C0.0614087 9.12063 0 9.02269 0 8.96148V2.58316L7.44274 10.0021C7.6024 10.1612 7.79891 10.2469 8.01998 10.2469H28.3586C28.3586 10.2469 28.4691 10.2714 28.5182 10.3082L37.5207 19.2819C37.5207 19.2819 37.5821 19.3798 37.5821 19.441V28.9167C37.5821 28.9167 37.5576 29.0269 37.5207 29.0758L30.0411 36.5315C29.8815 36.6907 29.7955 36.8865 29.7955 37.1069V43.069C29.7955 43.5219 30.164 43.8892 30.6184 43.8892H33.9959C34.2169 43.8892 34.4257 43.8035 34.5731 43.6444L35.8873 42.3344C35.8873 42.3344 35.9855 42.2732 36.0469 42.2732C36.1083 42.2732 36.1575 42.2977 36.2066 42.3344L39.1419 45.2604C39.2279 45.3461 39.2279 45.4807 39.1419 45.5664L36.3048 48.3944C36.3048 48.3944 36.2066 48.4557 36.1452 48.4557H30.6061C30.1517 48.4557 29.7832 48.8229 29.7832 49.2759V59.9636C29.7832 59.9636 29.7587 60.0738 29.7218 60.1227L24.0477 65.7787C23.8143 66.0113 23.7406 66.3541 23.8757 66.6724C24.0108 66.9785 24.2933 67.1744 24.6372 67.1744H28.813C29.034 67.1744 29.2428 67.0887 29.3902 66.9295L52.4553 43.9382C52.4553 43.9382 52.5536 43.877 52.615 43.877H83.3439C83.565 43.877 83.7738 43.7913 83.9212 43.6321L84.6949 42.8609C84.8423 42.7139 84.9406 42.4936 84.9406 42.2855V39.6778C84.9406 39.4575 84.8546 39.2493 84.6949 39.1024L83.9212 38.3311C83.7738 38.1842 83.5527 38.0863 83.3439 38.0863H73.3834C73.3834 38.0863 73.2729 38.0618 73.2238 38.0251L70.9271 35.7357C70.7674 35.5766 70.5709 35.4909 70.3498 35.4909H49.5568C49.3358 35.4909 49.127 35.5766 48.9796 35.7357L42.4703 42.2242C42.4703 42.2242 42.372 42.2855 42.3106 42.2855C42.2492 42.2855 42.2001 42.261 42.151 42.2242L39.2156 39.2983C39.1296 39.2126 39.1296 39.0779 39.2156 38.9922L51.7061 26.5417C51.9395 26.309 52.0132 25.9663 51.8781 25.648C51.743 25.3297 51.4605 25.146 51.1166 25.146H41.0333C40.9105 25.146 40.8122 25.0481 40.8122 24.9256V20.7877C40.8122 20.6653 40.9105 20.5673 41.0333 20.5673H46.9654C47.1865 20.5673 47.3953 20.4816 47.5426 20.3225L57.6259 10.2714C57.6259 10.2714 57.7242 10.2102 57.7856 10.2102H64.7002C64.7002 10.2102 64.8108 10.2347 64.8599 10.2714L67.1566 12.5608C67.3162 12.7199 67.5128 12.8056 67.7338 12.8056H85.9231C86.1442 12.8056 86.353 12.7199 86.5003 12.5608L99.1383 0V6.37832C99.1383 6.37832 99.1137 6.4885 99.0768 6.53747L88.2321 17.3476C88.2321 17.3476 88.1338 17.4088 88.0724 17.4088H65.5845C65.5845 17.4088 65.474 17.3843 65.4249 17.3476L63.1282 15.0582C62.9685 14.8991 62.772 14.8134 62.5509 14.8134H59.9349C59.7138 14.8134 59.5051 14.8991 59.3577 15.0582L55.2064 19.1962C54.9731 19.4288 54.8994 19.7716 55.0345 20.0899C55.1696 20.3959 55.4521 20.5918 55.796 20.5918H88.0847C88.0847 20.5918 88.1952 20.6163 88.2443 20.653L98.2785 30.7041C98.4259 30.8632 98.647 30.9489 98.8558 30.9489H117.856C118.31 30.9489 118.679 30.5817 118.679 30.1287V15.6336C118.679 15.1807 118.31 14.8134 117.856 14.8134H111.874C111.653 14.8134 111.445 14.8991 111.297 15.0582L99.5927 26.7253C99.5927 26.7253 99.4944 26.7865 99.433 26.7865C99.3716 26.7865 99.3225 26.762 99.2734 26.7253L96.338 23.7993C96.252 23.7136 96.252 23.579 96.338 23.4933L109.565 10.3082C109.565 10.3082 109.664 10.2469 109.725 10.2469H123.051C123.174 10.2469 123.272 10.3449 123.272 10.4673V30.1409C123.272 30.5939 123.64 30.9612 124.095 30.9612H143.832C144.286 30.9612 144.654 30.5939 144.654 30.1409V19.0003C144.654 18.7799 144.568 18.5718 144.409 18.4249L141.044 15.0705C140.884 14.9113 140.687 14.8256 140.466 14.8256H137.089C136.634 14.8256 136.266 15.1929 136.266 15.6459V27.5455C136.266 27.668 136.168 27.7659 136.045 27.7659H131.894C131.771 27.7659 131.673 27.668 131.673 27.5455V10.4673C131.673 10.3449 131.771 10.2469 131.894 10.2469H142.616C142.616 10.2469 142.726 10.2714 142.775 10.3082L149.186 16.6987C149.186 16.6987 149.248 16.7967 149.248 16.8579V30.1409C149.248 30.5939 149.616 30.9612 150.071 30.9612H172.399C172.522 30.9612 172.62 31.0591 172.62 31.1815V35.3195C172.62 35.4419 172.522 35.5399 172.399 35.5399H150.071C149.616 35.5399 149.248 35.9071 149.248 36.3601V55.2625C149.248 55.4828 149.334 55.691 149.493 55.8379L160.645 66.954C160.805 67.1132 161.001 67.1989 161.222 67.1989H172.399C172.522 67.1989 172.62 67.2968 172.62 67.4192V71.5572C172.62 71.6796 172.522 71.7775 172.399 71.7775H159.073C159.073 71.7775 158.963 71.7531 158.914 71.7163L147.528 60.3676C147.369 60.2084 147.172 60.1227 146.951 60.1227C146.73 60.1227 146.521 60.2084 146.374 60.3676L134.989 71.7163C134.989 71.7163 134.89 71.7775 134.829 71.7775H124.869C124.647 71.7775 124.439 71.8632 124.291 72.0224L114.257 82.0245V75.6462L114.245 75.6217Z" fill="#EBEBEB"/>
<path d="M94.1518 56.2296C94.1518 56.2296 94.0413 56.2051 93.9922 56.1684L88.5636 50.7572C88.4777 50.6715 88.4777 50.5369 88.5636 50.4512L91.499 47.5252C91.499 47.5252 91.5972 47.464 91.6586 47.464C91.72 47.464 91.7692 47.4885 91.8183 47.5252L95.7362 51.4306C95.8835 51.5775 96.1046 51.6754 96.3134 51.6754H115.276C115.399 51.6754 115.497 51.7734 115.497 51.8958V56.0337C115.497 56.1562 115.399 56.2541 115.276 56.2541H94.1641L94.1518 56.2296Z" fill="#EBEBEB"/>
<path d="M168.235 27.7537C168.113 27.7537 168.014 27.6557 168.014 27.5333V21.5712C168.014 21.3509 167.928 21.1427 167.769 20.9958L161.8 15.046C161.64 14.8868 161.444 14.8011 161.222 14.8011H153.866C153.866 14.8011 153.755 14.7766 153.706 14.7399L145.465 6.52523C145.465 6.52523 145.404 6.42729 145.404 6.36608V0L155.438 10.0021C155.597 10.1612 155.794 10.2469 156.015 10.2469H163.372C163.372 10.2469 163.482 10.2714 163.531 10.3082L172.534 19.2819C172.534 19.2819 172.595 19.3798 172.595 19.441V27.5455C172.595 27.668 172.497 27.7659 172.374 27.7659H168.223L168.235 27.7537Z" fill="#EBEBEB"/>
<path d="M189.544 75.6217C189.544 75.6217 189.569 75.5115 189.606 75.4625L197.847 67.2478C197.847 67.2478 197.945 67.1866 198.006 67.1866H236.522C236.743 67.1866 236.952 67.1009 237.099 66.9418L240.464 63.5873C240.624 63.4282 240.71 63.2323 240.71 63.0119V48.5046C240.71 48.0517 240.341 47.6844 239.887 47.6844C239.666 47.6844 239.469 47.7701 239.31 47.9292L225.849 61.347C225.849 61.347 225.751 61.4082 225.689 61.4082H197.552C197.331 61.4082 197.122 61.4939 196.975 61.653L186.891 71.7041C186.891 71.7041 186.793 71.7653 186.732 71.7653H176.01C175.887 71.7653 175.789 71.6674 175.789 71.5449V67.407C175.789 67.2846 175.887 67.1866 176.01 67.1866H184.582C184.803 67.1866 185.012 67.1009 185.16 66.9418L195.243 56.8907C195.243 56.8907 195.341 56.8295 195.403 56.8295H223.54C223.761 56.8295 223.97 56.7438 224.117 56.5847L228.269 52.4467C228.502 52.2141 228.576 51.8713 228.44 51.553C228.305 51.2347 228.023 51.0511 227.679 51.0511H192.357C192.136 51.0511 191.927 51.1368 191.779 51.2959L186.891 56.1684C186.891 56.1684 186.793 56.2296 186.732 56.2296H161.64C161.64 56.2296 161.53 56.2051 161.48 56.1684L154.21 48.9209C154.21 48.9209 154.148 48.8229 154.148 48.7617C154.148 48.7005 154.173 48.6515 154.21 48.6026L161.48 41.355C161.48 41.355 161.579 41.2938 161.64 41.2938H172.362C172.485 41.2938 172.583 41.3918 172.583 41.5142V45.6521C172.583 45.7746 172.485 45.8725 172.362 45.8725H163.789C163.568 45.8725 163.359 45.9582 163.212 46.1173L161.137 48.1863C160.977 48.3455 160.891 48.5414 160.891 48.7617C160.891 48.9821 160.977 49.1902 161.137 49.3371L163.212 51.4061C163.372 51.5652 163.568 51.6509 163.789 51.6509H184.582C184.803 51.6509 185.012 51.5652 185.16 51.4061L190.048 46.5336C190.048 46.5336 190.146 46.4724 190.207 46.4724H233.918C234.139 46.4724 234.348 46.3867 234.495 46.2275L238.647 42.0896C238.88 41.857 238.954 41.5142 238.819 41.1959C238.683 40.8898 238.401 40.6939 238.057 40.6939H186.375C186.253 40.6939 186.154 40.596 186.154 40.4736V36.3356C186.154 36.2132 186.253 36.1153 186.375 36.1153H239.862C240.317 36.1153 240.685 35.748 240.685 35.295V33.7402C240.685 33.2872 240.317 32.92 239.862 32.92H186.375C186.253 32.92 186.154 32.822 186.154 32.6996V28.5617C186.154 28.4392 186.253 28.3413 186.375 28.3413H239.862C240.317 28.3413 240.685 27.974 240.685 27.521V25.9663C240.685 25.5133 240.317 25.146 239.862 25.146H183.784C183.33 25.146 182.961 25.5133 182.961 25.9663V42.2855C182.961 42.5058 183.047 42.7139 183.207 42.8608L185.823 45.4685C185.823 45.4685 185.884 45.5664 185.884 45.6276C185.884 45.6889 185.86 45.7378 185.823 45.7868L182.887 48.7127C182.887 48.7127 182.789 48.774 182.728 48.774C182.666 48.774 182.617 48.7495 182.568 48.7127L178.429 44.587C178.429 44.587 178.368 44.4891 178.368 44.4279V22.0119C178.368 22.0119 178.392 21.9018 178.429 21.8528L190.035 10.2837C190.035 10.2837 190.134 10.2225 190.195 10.2225H245.058C245.18 10.2225 245.279 10.3204 245.279 10.4428V14.5808C245.279 14.7032 245.18 14.8011 245.058 14.8011H192.344C192.123 14.8011 191.915 14.8868 191.767 15.046L187.616 19.1839C187.383 19.4165 187.309 19.7593 187.444 20.0776C187.579 20.3837 187.862 20.5796 188.205 20.5796H245.082C245.205 20.5796 245.303 20.6775 245.303 20.7999V33.4954C245.303 33.728 245.389 33.9361 245.561 34.0953C245.709 34.2422 245.917 34.3156 246.126 34.3156C246.347 34.3156 246.544 34.2299 246.703 34.0708L253.458 27.3374C253.618 27.1783 253.704 26.9824 253.704 26.762V11.6671C253.704 11.6671 253.729 11.5569 253.765 11.5079L265.323 -0.0122433V6.36608C265.323 6.36608 265.298 6.47626 265.261 6.52523L258.531 13.2341C258.371 13.3933 258.285 13.5891 258.285 13.8095V28.9044C258.285 28.9044 258.261 29.0146 258.224 29.0636L245.549 41.6978C245.402 41.8447 245.303 42.0651 245.303 42.2732V65.1421C245.303 65.1421 245.279 65.2523 245.242 65.3013L238.831 71.6918C238.831 71.6918 238.733 71.7531 238.671 71.7531H200.156C199.935 71.7531 199.726 71.8388 199.578 71.9979L189.544 82V75.6217Z" fill="#EBEBEB"/>
<path d="M283.021 75.6217C283.021 75.6217 283.045 75.5115 283.082 75.4625L289.812 68.7537C289.972 68.5945 290.058 68.3986 290.058 68.1783V62.2162C290.058 61.7632 289.69 61.3959 289.235 61.3959H272.102C271.979 61.3959 271.881 61.298 271.881 61.1756V57.0376C271.881 56.9152 271.979 56.8173 272.102 56.8173H289.235C289.69 56.8173 290.058 56.45 290.058 55.997V51.8591C290.058 51.4061 289.69 51.0388 289.235 51.0388H272.102C271.979 51.0388 271.881 50.9409 271.881 50.8184V46.6805C271.881 46.5581 271.979 46.4601 272.102 46.4601H294.43C294.553 46.4601 294.651 46.5581 294.651 46.6805V70.3084C294.651 70.3084 294.627 70.4186 294.59 70.4676L283.033 81.9878V75.6094L283.021 75.6217Z" fill="#EBEBEB"/>
<path d="M244.259 71.7531C244.124 71.7531 244.075 71.6551 244.063 71.6184C244.051 71.5817 244.014 71.4715 244.112 71.3858L248.263 67.2478C248.263 67.2478 248.361 67.1866 248.423 67.1866H259.894C260.115 67.1866 260.324 67.1009 260.471 66.9418L263.836 63.5873C263.996 63.4282 264.082 63.2323 264.082 63.0119V42.7384C264.082 42.7384 264.107 42.6282 264.143 42.5793L267.951 38.7841C267.951 38.7841 268.049 38.7229 268.11 38.7229H288.449C288.67 38.7229 288.879 38.6372 289.026 38.4781L289.8 37.7068C289.96 37.5476 290.046 37.3517 290.046 37.1314V36.3479C290.046 35.8949 289.677 35.5276 289.223 35.5276H267.668C267.447 35.5276 267.238 35.6133 267.091 35.7725L257.008 45.8235C257.008 45.8235 256.91 45.8847 256.848 45.8847H251.309C251.186 45.8847 251.088 45.7868 251.088 45.6644V41.5264C251.088 41.404 251.186 41.3061 251.309 41.3061H254.686C254.908 41.3061 255.116 41.2204 255.264 41.0612L265.347 31.0101C265.347 31.0101 265.445 30.9489 265.507 30.9489H273.637C274.092 30.9489 274.46 30.5817 274.46 30.1287V22.0242C274.46 22.0242 274.485 21.914 274.522 21.865L278.329 18.0699C278.329 18.0699 278.427 18.0087 278.489 18.0087H286.619C287.073 18.0087 287.442 17.6414 287.442 17.1884V15.6336C287.442 15.1806 287.073 14.8134 286.619 14.8134H270.247C270.026 14.8134 269.818 14.8991 269.67 15.0582L268.896 15.8295C268.737 15.9887 268.651 16.1845 268.651 16.4049V27.5455C268.651 27.668 268.553 27.7659 268.43 27.7659H264.279C264.156 27.7659 264.057 27.668 264.057 27.5455V14.2625C264.057 14.2625 264.082 14.1523 264.119 14.1033L267.926 10.3081C267.926 10.3081 268.024 10.2469 268.086 10.2469H291.79C291.912 10.2469 292.011 10.3449 292.011 10.4673V30.1409C292.011 30.5939 292.379 30.9612 292.834 30.9612H294.393C294.516 30.9612 294.614 31.0591 294.614 31.1815V39.2861C294.614 39.2861 294.59 39.3962 294.553 39.4452L290.746 43.2404C290.746 43.2404 290.647 43.3016 290.586 43.3016H270.247C270.026 43.3016 269.818 43.3873 269.67 43.5464L268.896 44.3177C268.749 44.4646 268.651 44.685 268.651 44.8931V65.1666C268.651 65.1666 268.626 65.2768 268.589 65.3258L262.178 71.7163C262.178 71.7163 262.08 71.7775 262.019 71.7775H244.235L244.259 71.7531ZM280.65 22.5873C280.429 22.5873 280.22 22.673 280.073 22.8322L279.299 23.6035C279.139 23.7626 279.053 23.9585 279.053 24.1789V30.1409C279.053 30.5939 279.422 30.9612 279.876 30.9612H286.631C287.086 30.9612 287.454 30.5939 287.454 30.1409V23.4076C287.454 22.9546 287.086 22.5873 286.631 22.5873H280.65Z" fill="#EBEBEB"/>
<path d="M346.345 38.7107H298.053C297.931 38.7107 297.832 38.8093 297.832 38.931V43.069C297.832 43.1907 297.931 43.2893 298.053 43.2893H346.345C346.467 43.2893 346.566 43.1907 346.566 43.069V38.931C346.566 38.8093 346.467 38.7107 346.345 38.7107Z" fill="#EBEBEB"/>
<path d="M343.557 71.9979C343.41 71.851 343.189 71.7531 342.98 71.7531H334.407C334.285 71.7531 334.186 71.6551 334.186 71.5327V63.4282C334.186 63.4282 334.211 63.318 334.248 63.269L341.727 55.8134C341.887 55.6542 341.973 55.4583 341.973 55.238V51.8713C341.973 51.4183 341.604 51.0511 341.15 51.0511H304.01C303.789 51.0511 303.58 51.1368 303.433 51.2959L302.659 52.0672C302.499 52.2263 302.413 52.4222 302.413 52.6426V53.4261C302.413 53.8791 302.782 54.2463 303.236 54.2463H332.135C332.135 54.2463 332.246 54.2708 332.295 54.3076L335.132 57.1356C335.132 57.1356 335.193 57.2335 335.193 57.2947C335.193 57.3559 335.169 57.4049 335.132 57.4539L332.197 60.3798C332.197 60.3798 332.098 60.441 332.037 60.441C331.976 60.441 331.926 60.4165 331.877 60.3798L330.563 59.0699C330.404 58.9107 330.207 58.825 329.986 58.825H298.041C297.918 58.825 297.82 58.7271 297.82 58.6047V50.5001C297.82 50.5001 297.845 50.39 297.881 50.341L301.689 46.5458C301.689 46.5458 301.787 46.4846 301.848 46.4846H346.333C346.456 46.4846 346.554 46.5826 346.554 46.705V57.3927C346.554 57.3927 346.529 57.5028 346.493 57.5518L339.013 65.0075C338.853 65.1666 338.767 65.3625 338.767 65.5829V66.3664C338.767 66.8193 339.136 67.1866 339.59 67.1866H345.129C345.129 67.1866 345.24 67.2111 345.289 67.2478L350.939 72.8794C350.939 72.8794 351 72.9773 351 73.0385V79.4168L343.557 71.9979Z" fill="#EBEBEB"/>
<path d="M318.822 35.5276C318.699 35.5276 318.601 35.4297 318.601 35.3073V16.8456C318.601 16.8456 318.625 16.7354 318.662 16.6865L322.469 12.8913C322.469 12.8913 322.568 12.8301 322.629 12.8301H327.394C327.616 12.8301 327.824 12.7444 327.972 12.5852L328.745 11.814C328.905 11.6548 328.991 11.4589 328.991 11.2386V7.8719C328.991 7.74948 329.089 7.65154 329.212 7.65154H333.363C333.486 7.65154 333.584 7.74948 333.584 7.8719V13.3933C333.584 13.3933 333.56 13.5034 333.523 13.5524L329.716 17.3476C329.716 17.3476 329.617 17.4088 329.556 17.4088H324.791C324.57 17.4088 324.361 17.4945 324.213 17.6536L323.44 18.4249C323.28 18.5841 323.194 18.7799 323.194 19.0003V35.3195C323.194 35.4419 323.096 35.5399 322.973 35.5399H318.822V35.5276Z" fill="#EBEBEB"/>
<path d="M298.053 35.5276C297.931 35.5276 297.832 35.4297 297.832 35.3073V16.8456C297.832 16.8456 297.857 16.7354 297.894 16.6865L301.701 12.8913C301.701 12.8913 301.799 12.8301 301.861 12.8301H306.626C306.847 12.8301 307.056 12.7444 307.203 12.5852L307.977 11.814C308.137 11.6548 308.223 11.4589 308.223 11.2386V7.8719C308.223 7.74948 308.321 7.65154 308.444 7.65154H312.595C312.718 7.65154 312.816 7.74948 312.816 7.8719V13.3933C312.816 13.3933 312.791 13.5034 312.755 13.5524L308.947 17.3476C308.947 17.3476 308.849 17.4088 308.788 17.4088H304.022C303.801 17.4088 303.592 17.4945 303.445 17.6536L302.671 18.4249C302.512 18.5841 302.426 18.7799 302.426 19.0003V35.3195C302.426 35.4419 302.327 35.5399 302.205 35.5399H298.053V35.5276Z" fill="#EBEBEB"/>
<path d="M342.194 35.5276C342.071 35.5276 341.973 35.4297 341.973 35.3073V18.9881C341.973 18.7677 341.887 18.5596 341.727 18.4127L340.953 17.6414C340.794 17.4822 340.597 17.3965 340.376 17.3965H336.999C336.876 17.3965 336.778 17.2986 336.778 17.1762V13.0382C336.778 12.9158 336.876 12.8179 336.999 12.8179H342.538C342.538 12.8179 342.648 12.8423 342.698 12.8791L346.505 16.6742C346.505 16.6742 346.566 16.7722 346.566 16.8334V35.295C346.566 35.4174 346.468 35.5154 346.345 35.5154H342.194V35.5276Z" fill="#EBEBEB"/>
<path d="M338.559 20.5918H326.621C326.499 20.5918 326.4 20.6905 326.4 20.8122V24.9501C326.4 25.0718 326.499 25.1705 326.621 25.1705H338.559C338.681 25.1705 338.78 25.0718 338.78 24.9501V20.8122C338.78 20.6905 338.681 20.5918 338.559 20.5918Z" fill="#EBEBEB"/>
<path d="M338.559 28.3535H326.621C326.499 28.3535 326.4 28.4522 326.4 28.5739V32.7119C326.4 32.8336 326.499 32.9322 326.621 32.9322H338.559C338.681 32.9322 338.78 32.8336 338.78 32.7119V28.5739C338.78 28.4522 338.681 28.3535 338.559 28.3535Z" fill="#EBEBEB"/>
<path d="M315.199 20.5918H305.852C305.73 20.5918 305.631 20.6905 305.631 20.8122V24.9501C305.631 25.0718 305.73 25.1705 305.852 25.1705H315.199C315.321 25.1705 315.42 25.0718 315.42 24.9501V20.8122C315.42 20.6905 315.321 20.5918 315.199 20.5918Z" fill="#EBEBEB"/>
<path d="M315.199 28.3535H305.852C305.73 28.3535 305.631 28.4522 305.631 28.5739V32.7119C305.631 32.8336 305.73 32.9322 305.852 32.9322H315.199C315.321 32.9322 315.42 32.8336 315.42 32.7119V28.5739C315.42 28.4522 315.321 28.3535 315.199 28.3535Z" fill="#EBEBEB"/>
<path d="M304.464 71.7531C304.464 71.7531 304.354 71.7286 304.305 71.6918L297.894 65.3013C297.894 65.3013 297.832 65.2033 297.832 65.1421V62.2162C297.832 62.0938 297.931 61.9958 298.053 61.9958H302.205C302.327 61.9958 302.426 62.0938 302.426 62.2162V62.9997C302.426 63.2201 302.512 63.4282 302.671 63.5751L306.036 66.9295C306.196 67.0887 306.393 67.1744 306.614 67.1744H330.772C330.895 67.1744 330.993 67.2723 330.993 67.3947V71.5327C330.993 71.6551 330.895 71.7531 330.772 71.7531H304.464Z" fill="#EBEBEB"/>
</g>
<defs>
<clipPath id="clip0_2_502">
<rect width="351" height="82" fill="white"/>
</clipPath>
</defs>
</svg>
