<svg width="351" height="21" viewBox="0 0 351 21" fill="none" xmlns="http://www.w3.org/2000/svg">
<g clip-path="url(#clip0_2_675)">
<path d="M167.747 15.5722V4.21123L158.575 13.5227C158.133 13.9719 157.552 14.2152 156.934 14.2152H150.868L163.405 1.48797C164.346 0.533422 165.599 0 166.936 0H172.393V15.5722H167.747Z" fill="#EBEBEB"/>
<path d="M135.667 21V0H141.125C142.461 0 143.715 0.524064 144.655 1.48797L152.869 9.8262L149.357 13.3917L140.313 4.21123V21H135.667Z" fill="#EBEBEB"/>
<path d="M144.157 21L146.785 18.3329C147.227 17.8837 147.808 17.6404 148.425 17.6404H182.331C183.142 17.6404 183.898 17.3222 184.469 16.742L200.279 0.692513C200.721 0.243316 201.302 0 201.92 0H207.986L188.765 19.512C187.825 20.4666 186.571 21 185.235 21H144.167H144.157Z" fill="#EBEBEB"/>
<path d="M180.533 12.1751C179.915 12.1751 179.335 11.9318 178.892 11.4826L175.113 7.64572C174.67 7.19652 174.431 6.60695 174.431 5.97995V0H179.077V7.7861C179.077 8.35695 179.538 8.82487 180.1 8.82487H189.945L187.318 11.492C186.875 11.9412 186.295 12.1845 185.677 12.1845H180.542L180.533 12.1751Z" fill="#EBEBEB"/>
<path d="M314.606 21L317.233 18.3329C317.675 17.8837 318.256 17.6404 318.874 17.6404H325.345C326.156 17.6404 326.912 17.3222 327.484 16.742L343.293 0.692513C343.736 0.243316 344.317 0 344.934 0H351L331.78 19.512C330.839 20.4666 329.586 21 328.249 21H314.606Z" fill="#EBEBEB"/>
<path d="M323.548 12.1751C322.93 12.1751 322.349 11.9318 321.907 11.4826L318.127 7.64572C317.685 7.19652 317.445 6.60695 317.445 5.97995V0H322.091V7.7861C322.091 8.35695 322.552 8.82487 323.114 8.82487H332.96L330.332 11.492C329.89 11.9412 329.309 12.1845 328.691 12.1845H323.557L323.548 12.1751Z" fill="#EBEBEB"/>
<path d="M251.958 21V17.6404H273.658C274.22 17.6404 274.681 17.1725 274.681 16.611L274.709 5.42781H279.355V14.8048C279.355 15.4318 279.115 16.0214 278.672 16.4706L274.893 20.3075C274.45 20.7567 273.87 21 273.252 21H251.967H251.958Z" fill="#EBEBEB"/>
<path d="M245.274 21V6.19519C245.274 5.56818 245.523 4.95989 245.956 4.52941L249.763 0.683155C250.206 0.243316 250.787 0 251.404 0H283.531L280.903 2.66711C280.461 3.11631 279.88 3.35963 279.262 3.35963H250.962C250.4 3.35963 249.939 3.82754 249.939 4.3984L249.911 21H245.265H245.274Z" fill="#EBEBEB"/>
<path d="M209.184 21V6.19519C209.184 5.56818 209.424 4.97861 209.866 4.52941L213.646 0.692513C214.088 0.243316 214.669 0 215.287 0H238.471C239.089 0 239.669 0.243316 240.112 0.692513L242.951 3.57487C243.135 3.76203 243.237 4.01471 243.237 4.2861V7.90775C243.237 8.17914 243.135 8.42246 242.951 8.61898L241.578 10.0134C241.31 10.2848 241.31 10.7246 241.578 10.996L242.951 12.3904C243.135 12.5775 243.237 12.8302 243.237 13.1016V16.7233C243.237 16.9947 243.135 17.238 242.951 17.4345L240.112 20.3168C239.669 20.766 239.089 21.0094 238.471 21.0094H209.184V21ZM214.844 3.35963C214.282 3.35963 213.821 3.82754 213.821 4.3984V17.6497H237.568C238.13 17.6497 238.591 17.1818 238.591 16.611V13.2233C238.591 12.6524 238.13 12.1845 237.568 12.1845H215.867V8.82487H237.568C238.13 8.82487 238.591 8.35695 238.591 7.7861V4.3984C238.591 3.82754 238.13 3.35963 237.568 3.35963H214.844Z" fill="#EBEBEB"/>
<path d="M281.355 21V6.19519C281.355 5.56818 281.595 4.97861 282.037 4.52941L286.001 0.505348V20.9906H281.355V21Z" fill="#EBEBEB"/>
<path d="M288.038 21V17.6404H309.738C310.301 17.6404 310.762 17.1725 310.762 16.6016V4.38904C310.762 3.81818 310.301 3.35027 309.738 3.35027H288.038V0H310.642C311.26 0 311.84 0.243316 312.283 0.692513L315.122 3.57487C315.306 3.76203 315.408 4.01471 315.408 4.2861V16.7326C315.408 17.004 315.306 17.2473 315.122 17.4438L312.283 20.3262C311.84 20.7754 311.26 21.0187 310.642 21.0187H288.038V21Z" fill="#EBEBEB"/>
<path d="M36.7998 16.4706C36.3574 16.0214 36.1177 15.4318 36.1177 14.8048V6.19519C36.1177 5.56818 36.3574 4.97861 36.7998 4.52941L40.7638 0.505348V20.4853L36.7998 16.4612V16.4706Z" fill="#EBEBEB"/>
<path d="M42.7734 21V17.6404H49.2724C49.7241 17.6404 50.1481 17.4626 50.4707 17.135L65.8839 1.48797C66.8242 0.533423 68.0779 0 69.4146 0H74.3649L55.1168 19.512C54.1765 20.4666 52.9228 20.9906 51.5862 20.9906H42.7642L42.7734 21Z" fill="#EBEBEB"/>
<path d="M57.3292 21L72.6687 5.42781H79.6931L76.356 8.81551H86.358L83.3436 11.8757C83.1592 12.0628 82.9103 12.1658 82.643 12.1658H73.4799C73.2033 12.1658 72.9544 12.2781 72.7608 12.4652L67.6815 17.6217H90.792C91.4097 17.6217 91.9904 17.865 92.4329 18.3142L95.0602 20.9813H57.3569L57.3292 21Z" fill="#EBEBEB"/>
<path d="M74.6598 3.35963L77.3331 0.683155C77.7664 0.243316 78.3472 0 78.9648 0H95.0601L92.396 2.67647C91.9627 3.11631 91.382 3.35963 90.7643 3.35963H74.6598Z" fill="#EBEBEB"/>
<path d="M6.68335 21V17.6404H28.4111C28.9735 17.6404 29.4344 17.1725 29.4344 16.6016V5.42781H34.0805V14.8048C34.0805 15.4318 33.8408 16.0214 33.3983 16.4706L29.6187 20.3075C29.1763 20.7567 28.5955 21 27.9779 21H6.68335Z" fill="#EBEBEB"/>
<path d="M0 21V6.19519C0 5.56818 0.239679 4.97861 0.682162 4.52941L4.46171 0.692513C4.90419 0.243316 5.48495 0 6.10258 0H38.2564L35.6291 2.66711C35.1867 3.11631 34.6059 3.35963 33.9883 3.35963H5.68776C5.12543 3.35963 4.66451 3.82754 4.66451 4.3984L4.63686 21H0Z" fill="#EBEBEB"/>
<path d="M93.6037 16.4706C93.1612 16.0214 92.9215 15.4318 92.9215 14.8048V6.19519C92.9215 5.56818 93.1612 4.97861 93.6037 4.52941L97.3556 0.720588C97.7888 0.280749 98.3788 0.0280749 98.9964 0.0280749L122.181 0C122.808 0 123.388 0.243316 123.822 0.692513L126.449 3.35963H98.5908C98.0285 3.35963 97.5676 3.82754 97.5676 4.3984V20.4947L93.6037 16.4706Z" fill="#EBEBEB"/>
<path d="M99.5771 12.1751V8.81551H121.277C121.84 8.81551 122.301 8.34759 122.301 7.77674V5.41845H126.947V7.32754C126.947 7.95455 126.707 8.54412 126.264 8.99332L123.822 11.4733C123.379 11.9225 122.798 12.1658 122.181 12.1658H99.5771V12.1751Z" fill="#EBEBEB"/>
<path d="M121.72 21C121.102 21 120.521 20.7567 120.079 20.3075L114.115 14.2527H120.18C120.798 14.2527 121.379 14.496 121.821 14.9452L127.786 21H121.72Z" fill="#EBEBEB"/>
</g>
<defs>
<clipPath id="clip0_2_675">
<rect width="351" height="21" fill="white"/>
</clipPath>
</defs>
</svg>
