<svg width="98" height="59" viewBox="0 0 98 59" fill="none" xmlns="http://www.w3.org/2000/svg">
<path d="M28.7538 44.1005L54.1407 18.8466C54.8428 18.1481 54.8428 17.0159 54.1407 16.3175L47.0932 9.30688C46.4709 8.68783 45.6411 8.34921 44.7635 8.34921H11.6802L6.29221 2.97884H48.0187C49.5399 2.97884 50.9706 3.56614 52.045 4.63492L62.0605 14.5979L32.4078 44.0952H28.7644L28.7538 44.1005Z" fill="#EBEBEB"/>
<path d="M49.9867 56.0212C48.4655 56.0212 47.0347 55.4339 45.9603 54.3651L35.9449 44.4021L65.5975 14.9048H69.2409L59.8053 24.291L71.4642 35.8889L85.3677 22.0582L75.5491 12.291C74.9268 11.672 74.097 11.3333 73.2194 11.3333H62.603L51.2206 0H62.353L71.3366 8.93651H82.4583C83.9795 8.93651 85.4103 9.52381 86.4847 10.5926L98 22.0476L77.783 42.1587L84.2242 48.5661H73.0918L54.2471 29.8201L43.8593 40.1534C43.1572 40.8519 43.1572 41.9841 43.8593 42.6825L50.9068 49.6931C51.5291 50.3122 52.3589 50.6508 53.2365 50.6508H86.3198L91.7131 56.0159H49.9867V56.0212Z" fill="#EBEBEB"/>
<path d="M35.647 59L26.6634 50.0635H15.5417C14.0205 50.0635 12.5897 49.4762 11.5153 48.4074L0 36.9471L20.217 16.836L13.7758 10.4286H24.9082L32.0993 17.582L12.627 36.9524L22.4456 46.7196C23.0679 47.3386 23.8976 47.6772 24.7753 47.6772H35.3917L46.7741 59H35.6417H35.647Z" fill="#EBEBEB"/>
</svg>
